<?xml version="1.0" encoding="UTF-8"?> <svg xmlns="http://www.w3.org/2000/svg" width="64" height="64" viewBox="0 0 64 64" fill="none"> <path d="M56.0001 51H8.00011C7.8354 50.9991 7.67345 50.9576 7.52866 50.8791C7.38386 50.8006 7.2607 50.6876 7.17011 50.55L3.17011 44.55C3.08234 44.398 3.03613 44.2255 3.03613 44.05C3.03613 43.8745 3.08234 43.702 3.17011 43.55C3.24836 43.3938 3.36616 43.2608 3.51179 43.1644C3.65741 43.0679 3.82577 43.0112 4.00011 43H60.0001C60.181 43.0005 60.3584 43.05 60.5134 43.1434C60.6683 43.2367 60.7951 43.3703 60.8801 43.53C60.9604 43.6864 60.9981 43.8611 60.9893 44.0367C60.9805 44.2123 60.9256 44.3824 60.8301 44.53L56.8301 50.53C56.7419 50.6713 56.6197 50.7883 56.4748 50.8703C56.3298 50.9524 56.1667 50.997 56.0001 51ZM8.54011 49H55.4601L58.1301 45H5.87011L8.54011 49Z" fill="#2C2B29"></path> <path d="M56 45H8C7.73478 45 7.48043 44.8946 7.29289 44.7071C7.10536 44.5196 7 44.2652 7 44V38C7 31.3696 9.63392 25.0107 14.3223 20.3223C19.0107 15.6339 25.3696 13 32 13C38.6304 13 44.9893 15.6339 49.6777 20.3223C54.3661 25.0107 57 31.3696 57 38V44C57 44.2652 56.8946 44.5196 56.7071 44.7071C56.5196 44.8946 56.2652 45 56 45ZM9 43H55V38C54.9995 32.727 53.1872 27.6143 49.8666 23.5182C46.5461 19.422 41.9188 16.5913 36.76 15.5C33.4099 14.7913 29.9439 14.8396 26.6149 15.6414C23.2859 16.4431 20.1779 17.978 17.5177 20.1341C14.8576 22.2902 12.7124 25.0131 11.2388 28.104C9.76518 31.1949 9.00031 34.5758 9 38V43Z" fill="#2C2B29"></path> <path d="M37 15.52H36.79C33.651 14.8599 30.409 14.8599 27.27 15.52C27.1341 15.5488 26.9937 15.5489 26.8578 15.5204C26.7219 15.4919 26.5933 15.4354 26.4805 15.3545C26.3676 15.2736 26.2728 15.17 26.2021 15.0505C26.1314 14.9309 26.0864 14.7979 26.07 14.66C26.0304 14.442 26.007 14.2214 26 14C26 12.4087 26.6321 10.8826 27.7574 9.75736C28.8826 8.63214 30.4087 8 32 8C33.5913 8 35.1174 8.63214 36.2426 9.75736C37.3679 10.8826 38 12.4087 38 14C38.0152 14.2131 38.0152 14.4269 38 14.64C37.983 14.7771 37.9378 14.9092 37.8673 15.0279C37.7967 15.1467 37.7023 15.2495 37.59 15.33C37.4205 15.4582 37.2125 15.5252 37 15.52ZM32 10C31.0588 10 30.1477 10.3319 29.4271 10.9373C28.7064 11.5428 28.2224 12.3829 28.06 13.31C30.6707 12.9001 33.3293 12.9001 35.94 13.31C35.7776 12.3829 35.2936 11.5428 34.5729 10.9373C33.8523 10.3319 32.9412 10 32 10Z" fill="#2C2B29"></path> </svg> 