<?xml version="1.0" encoding="UTF-8"?> <svg xmlns="http://www.w3.org/2000/svg" width="50" height="50" viewBox="0 0 50 50" fill="none"> <path d="M12.1321 28.6969L15.2536 25.6552C15.4574 25.4569 15.5306 25.1599 15.443 24.8888C15.3548 24.6183 15.1211 24.421 14.8396 24.3801L10.5263 23.7528L8.59662 19.8461C8.47107 19.591 8.21098 19.4296 7.92699 19.4296C7.64299 19.4296 7.38291 19.591 7.25685 19.8456L5.32517 23.7528L1.01389 24.3801C0.731886 24.421 0.498211 24.6183 0.410022 24.8888C0.322332 25.1589 0.395573 25.4564 0.598855 25.6552L3.71884 28.6969L2.98443 32.9928C2.9366 33.2728 3.0517 33.5563 3.28188 33.7238C3.51257 33.8912 3.817 33.9136 4.06911 33.7806L7.92649 31.7522L11.7839 33.7806C11.8935 33.8379 12.0126 33.8663 12.1316 33.8663C12.2866 33.8663 12.4406 33.8179 12.5711 33.7238C12.8013 33.5563 12.9164 33.2733 12.8685 32.9923L12.1321 28.6969ZM10.8073 27.9007C10.6309 28.0726 10.5507 28.3198 10.5921 28.5624L11.1391 31.7522L8.27426 30.246C8.05603 30.1319 7.79645 30.1319 7.57872 30.246L4.71283 31.7532L5.25841 28.5624C5.29976 28.3203 5.21954 28.0731 5.04367 27.9012L2.72635 25.6417L5.92854 25.1758C6.17168 25.1405 6.38194 24.988 6.49106 24.7673L7.92649 21.864L9.35993 24.7668C9.46854 24.9875 9.6793 25.14 9.92244 25.1753L13.1256 25.6412L10.8073 27.9007Z" fill="#2C2B29"></path> <path d="M14.8919 28.362C14.4903 28.2699 14.0902 28.5285 14.002 28.932C13.9139 29.3356 14.169 29.7337 14.5725 29.8219C14.6747 29.8443 24.8089 32.1667 28.0176 41.7564C28.1222 42.0693 28.4137 42.2666 28.7266 42.2666C28.8048 42.2666 28.885 42.2546 28.9637 42.2282C29.3554 42.0967 29.5666 41.6737 29.4356 41.2826C25.9598 30.8961 15.3418 28.4602 14.8919 28.362Z" fill="#2C2B29"></path> <path d="M31.5492 36.3221C24.1194 31.5494 26.8084 18.6179 26.8363 18.4879C26.9235 18.0843 26.6669 17.6867 26.2638 17.5995C25.8647 17.5138 25.4636 17.7679 25.3759 18.1715C25.3451 18.3135 24.6256 21.6971 24.8941 25.7707C25.2559 31.2714 27.2782 35.3545 30.7415 37.5792C30.8666 37.6594 31.0061 37.6978 31.1451 37.6978C31.3907 37.6978 31.6319 37.5767 31.7744 37.3545C31.9976 37.0072 31.8969 36.5448 31.5492 36.3221Z" fill="#2C2B29"></path> <path d="M23.8552 16.5143L26.7504 16.1257L28.7075 18.2906C28.851 18.4495 29.0533 18.5367 29.2616 18.5367C29.3298 18.5367 29.3981 18.5272 29.4659 18.5083C29.7394 18.4306 29.9452 18.2044 29.9965 17.9243L30.5236 15.053L33.1912 13.8552C33.4508 13.7386 33.6217 13.485 33.6322 13.201C33.6426 12.9165 33.4907 12.6509 33.2405 12.5159L30.6706 11.1288L30.3572 8.22399C30.3263 7.94149 30.1385 7.70034 29.8709 7.60218C29.6034 7.50353 29.3044 7.56631 29.0982 7.76312L26.9831 9.77852L24.1242 9.17813C23.8462 9.11834 23.5582 9.22447 23.3828 9.44818C23.207 9.6719 23.1741 9.97632 23.2971 10.2329L24.5597 12.8667L23.1078 15.4027C22.9663 15.6494 22.9778 15.9548 23.1362 16.1914C23.2946 16.4266 23.5747 16.5512 23.8552 16.5143ZM26.0768 12.5742L25.2991 10.9524L27.0604 11.3221C27.301 11.3724 27.5511 11.3012 27.73 11.1318L29.0334 9.88963L29.2267 11.6798C29.2531 11.9245 29.3981 12.1402 29.6143 12.2573L31.1977 13.1118L29.5536 13.8502C29.3293 13.9508 29.1689 14.1551 29.1246 14.3968L28.8002 16.164L27.5955 14.8312C27.453 14.6733 27.2512 14.5851 27.0414 14.5851C27.0085 14.5851 26.9752 14.5871 26.9423 14.5916L25.1571 14.8312L26.0514 13.2682C26.173 13.055 26.183 12.7954 26.0768 12.5742Z" fill="#2C2B29"></path> <path d="M49.3751 18.8407C49.2506 18.5851 48.991 18.4221 48.707 18.4206L46.6926 18.4107L45.5631 16.7475C45.4031 16.5124 45.1236 16.3898 44.8416 16.4272C44.5601 16.4665 44.3249 16.6623 44.2353 16.9324L43.602 18.8427L41.6683 19.4082C41.3953 19.4879 41.191 19.7161 41.1417 19.9961C41.0924 20.2761 41.2069 20.5601 41.4361 20.728L43.0594 21.9173L42.9961 23.9312C42.9867 24.2157 43.1401 24.4803 43.3912 24.6143C43.5018 24.6731 43.6224 24.7025 43.743 24.7025C43.8965 24.7025 44.0489 24.6552 44.1785 24.5625L45.8142 23.3892L47.7075 24.0688C47.9746 24.1649 48.274 24.1011 48.4793 23.9028C48.6836 23.7055 48.7588 23.4086 48.6721 23.1375L48.0593 21.2178L49.2944 19.6259C49.4678 19.4012 49.4997 19.0968 49.3751 18.8407ZM46.5152 21.298L46.7872 22.15L45.9497 21.8496C45.7185 21.7664 45.4614 21.8022 45.2616 21.9457L44.5372 22.4649L44.5656 21.5711C44.5736 21.3244 44.459 21.0902 44.2607 20.9448L43.5417 20.4176L44.3977 20.167C44.6334 20.0982 44.8202 19.9179 44.8974 19.6852L45.1774 18.8402L45.6772 19.5761C45.8157 19.7799 46.0454 19.9024 46.2915 19.9034L47.1834 19.9079L46.6363 20.6129C46.4858 20.8072 46.4405 21.0638 46.5152 21.298Z" fill="#2C2B29"></path> <path d="M40.2972 22.299C40.1662 22.2875 36.9864 22.0534 34.418 24.4165C32.3597 26.3109 31.3159 29.2779 31.3159 33.2365C31.3159 33.649 31.6507 33.9839 32.0633 33.9839C32.4758 33.9839 32.8106 33.649 32.8106 33.2365C32.8106 29.7244 33.6866 27.1325 35.414 25.5316C37.4896 23.6079 40.1482 23.7877 40.1761 23.7887C40.5927 23.8251 40.9459 23.5162 40.9803 23.1056C41.0142 22.6946 40.7088 22.3329 40.2972 22.299Z" fill="#2C2B29"></path> </svg> 