<?xml version="1.0" encoding="UTF-8"?> <svg xmlns="http://www.w3.org/2000/svg" width="59" height="80" viewBox="0 0 59 80" fill="none"><path d="M30.439 79.5222C30.496 79.4535 30.6044 79.322 30.7608 79.1306C31.0204 78.8131 31.3211 78.4421 31.6596 78.021C32.6254 76.8193 33.701 75.4548 34.8591 73.9531C38.1678 69.6626 41.4766 65.129 44.5668 60.5544C46.8173 57.223 48.8679 53.991 50.6735 50.8996C55.9072 41.9386 58.843 34.6145 58.843 29.3439C58.843 13.1369 45.6697 0 29.4215 0C13.1733 0 0 13.1369 0 29.3439C0 34.6145 2.93576 41.9386 8.16952 50.8996C9.97503 53.991 12.0257 57.223 14.2762 60.5544C17.3664 65.129 20.6752 69.6626 23.9839 73.9531C25.142 75.4548 26.2176 76.8193 27.1834 78.021C27.5219 78.4421 27.8226 78.8131 28.0821 79.1306C28.2386 79.322 28.347 79.4535 28.404 79.5222C28.9327 80.1593 29.9103 80.1593 30.439 79.5222ZM29.2448 76.3643C28.2898 75.1759 27.225 73.8253 26.0781 72.3381C22.8011 68.0886 19.5241 63.5986 16.4676 59.074C14.2477 55.7879 12.2276 52.6039 10.4532 49.5658C5.44297 40.9875 2.64463 34.0063 2.64463 29.3439C2.64463 14.5991 14.6322 2.64463 29.4215 2.64463C44.2108 2.64463 56.1983 14.5991 56.1983 29.3439C56.1983 34.0063 53.4 40.9875 48.3898 49.5658C46.6154 52.6039 44.5952 55.7879 42.3753 59.074C39.3189 63.5986 36.0419 68.0886 32.7649 72.3381C31.6179 73.8253 30.5532 75.1759 29.5982 76.3643C29.538 76.4391 29.4791 76.5123 29.4215 76.5838C29.3638 76.5123 29.3049 76.4391 29.2448 76.3643Z" fill="black"></path><path d="M29.0912 38.9304C35.3074 38.9304 40.3309 33.7592 40.3309 27.399C40.3309 21.0389 35.3074 15.8677 29.0912 15.8677C22.875 15.8677 17.8516 21.0389 17.8516 27.399C17.8516 33.7592 22.875 38.9304 29.0912 38.9304ZM29.0912 36.2858C24.353 36.2858 20.4962 32.3155 20.4962 27.399C20.4962 22.4826 24.353 18.5123 29.0912 18.5123C33.8294 18.5123 37.6863 22.4826 37.6863 27.399C37.6863 32.3155 33.8294 36.2858 29.0912 36.2858Z" fill="black"></path></svg> 