<?xml version="1.0" encoding="UTF-8"?> <svg xmlns="http://www.w3.org/2000/svg" width="20" height="20" viewBox="0 0 20 20" fill="none"><path d="M0.702182 20C0.516179 20 0.339448 19.9256 0.209245 19.7954C0.0325421 19.6188 -0.0418129 19.3584 0.0232883 19.1167L1.19512 14.7373C0.413905 13.2868 0.00466938 11.6504 0.00466938 9.99534C0.00466938 4.48164 4.48735 0 10.0023 0C15.5173 0 20 4.48164 20 9.99534C20 15.5091 15.5173 19.9907 10.0023 19.9907C8.31899 19.9907 6.67292 19.5723 5.20349 18.7727L0.888195 19.9721C0.823094 19.9907 0.767283 20 0.702182 20ZM5.29647 17.3315C5.41737 17.3315 5.53828 17.3688 5.64988 17.4245C6.96121 18.1963 8.46779 18.6053 10.0023 18.6053C14.7454 18.6053 18.605 14.7466 18.605 10.0046C18.605 5.26269 14.7454 1.40401 10.0023 1.40401C5.25927 1.40401 1.3997 5.26269 1.3997 10.0046C1.3997 11.5202 1.79959 12.9986 2.55291 14.3003C2.64591 14.4584 2.67383 14.6536 2.62733 14.8303L1.69731 18.3078L5.11976 17.3594C5.17556 17.3408 5.24067 17.3315 5.29647 17.3315Z" fill="#2A2A2A"></path><path d="M12.5506 15.3599C11.974 15.3599 11.3788 15.2298 10.7557 14.9601C10.1698 14.7091 9.58387 14.3744 9.01656 13.9559C8.45855 13.5468 7.9099 13.0819 7.4077 12.5798C6.90549 12.0684 6.44043 11.5292 6.03122 10.9713C5.61272 10.3855 5.27791 9.80903 5.03611 9.24185C4.7757 8.62818 4.64551 8.02381 4.64551 7.44733C4.64551 7.03822 4.71989 6.6477 4.85939 6.28508C5.0082 5.90386 5.25001 5.55982 5.56622 5.26229C6.16143 4.67651 7.01708 4.46268 7.69599 4.78811C7.9285 4.89039 8.1238 5.05775 8.27264 5.2809L9.35137 6.79646C9.46297 6.94523 9.54676 7.1033 9.61186 7.26136C9.68627 7.44732 9.73277 7.6333 9.73277 7.80996C9.73277 8.05171 9.66757 8.29345 9.53737 8.5073C9.45367 8.64677 9.33277 8.81414 9.17466 8.97221L9.05376 9.10238C9.10956 9.17676 9.17466 9.26974 9.27696 9.38132C9.47227 9.60447 9.68617 9.84622 9.91868 10.0787C10.1512 10.3018 10.3837 10.525 10.6162 10.7202C10.7278 10.8132 10.8209 10.8876 10.8953 10.9341L11.0254 10.8039C11.1928 10.6365 11.3603 10.5064 11.5277 10.4227C11.8346 10.2274 12.3088 10.1809 12.7273 10.3576C12.8761 10.4134 13.0249 10.4971 13.183 10.6087L14.7363 11.7058C14.9502 11.8546 15.1175 12.0591 15.2291 12.2916C15.3221 12.524 15.3594 12.7286 15.3594 12.9425C15.3594 13.2214 15.2942 13.491 15.1733 13.7514C15.0524 13.9931 14.9129 14.207 14.7455 14.4022C14.4479 14.7277 14.1038 14.9694 13.7318 15.1275C13.3598 15.2856 12.9598 15.3599 12.5506 15.3599ZM7.01704 6.04332C6.96124 6.04332 6.77528 6.04332 6.54278 6.27577C6.36608 6.44314 6.24515 6.61982 6.16145 6.81507C6.07774 7.01033 6.04053 7.23349 6.04053 7.45664C6.04053 7.84716 6.13353 8.26556 6.31953 8.71186C6.51483 9.17676 6.80317 9.66956 7.15657 10.1624C7.51928 10.6551 7.92849 11.1479 8.38424 11.6035C8.83995 12.0498 9.32347 12.4683 9.82568 12.8402C10.3093 13.1935 10.8023 13.4724 11.2952 13.6863C12.002 13.9931 12.6529 14.0675 13.183 13.8444C13.369 13.77 13.5364 13.6398 13.7038 13.4724C13.7875 13.3795 13.8527 13.2865 13.9085 13.1656C13.9364 13.1005 13.955 13.0261 13.955 12.9611C13.955 12.9425 13.955 12.9146 13.927 12.8588L12.3739 11.7802C12.3088 11.7337 12.2437 11.6965 12.1879 11.6779C12.1507 11.6965 12.095 11.7244 11.9927 11.8267L11.6393 12.18C11.3696 12.4497 10.9418 12.524 10.5977 12.4032L10.4303 12.3288C10.2164 12.2172 9.97448 12.0498 9.70477 11.8174C9.44437 11.5942 9.19336 11.3618 8.92365 11.1015C8.66325 10.8318 8.43074 10.5808 8.20754 10.3204C7.96569 10.0322 7.79828 9.79973 7.68668 9.60447L7.5844 9.36272C7.5565 9.26974 7.54716 9.16746 7.54716 9.07448C7.54716 8.81414 7.6402 8.58169 7.8169 8.39573L8.17034 8.03311C8.27264 7.93083 8.30984 7.87505 8.32844 7.83786C8.30054 7.77277 8.26334 7.71697 8.21684 7.65189L7.12864 6.11772L7.01704 6.04332Z" fill="#2A2A2A"></path></svg> 